<?xml version="1.0" encoding="utf-8"?>
<!-- Generator: Adobe Illustrator 19.1.0, SVG Export Plug-In . SVG Version: 6.00 Build 0)  -->
<!DOCTYPE svg PUBLIC "-//W3C//DTD SVG 1.1//EN" "http://www.w3.org/Graphics/SVG/1.1/DTD/svg11.dtd">
<svg version="1.1" id="Layer_1" xmlns="http://www.w3.org/2000/svg" xmlns:xlink="http://www.w3.org/1999/xlink" x="0px" y="0px"
	 viewBox="0 0 409 83" style="enable-background:new 0 0 409 83;" xml:space="preserve">
<g>
	<path d="M16.1,67.7c-1.4-0.6-2.2-1.4-2.2-2.4c0-0.6,0.4-1.3,1.1-2.1c0.2-0.2,0.6-0.3,1.4-0.4c0.7,0,1.2-0.3,1.4-0.9
		c1-2.1,1.5-4.2,1.5-6.5c0-3-1.6-7.5-4.7-13.5c-3.1-6-4.6-10.7-4.6-14.3c0-2.9,0.6-5.5,1.7-7.8c1.3-2.6,3.1-4.5,5.5-5.7
		c1.2-0.5,2.3-0.8,3.2-0.8c2,0,3.5,0.6,4.5,1.7c0.5,0.5,0.7,1,0.7,1.6c0,1-0.7,1.8-2.1,2.5c-0.2,0.1-0.4,0.1-0.6,0.1
		c-0.3,0-0.5,0-0.6-0.1c-0.5-0.2-0.9-0.3-1.1-0.3c-0.3,0-0.6,0.1-0.9,0.4c-2.6,2.6-3.9,5.8-3.9,9.5c0,1.4,0.2,2.7,0.6,3.9
		c0.1,0.2,0.6,1.3,1.5,3.2c0.9,1.9,2.2,4.5,4,8c2.3,4.6,3.5,8.5,3.5,11.7c0,2.6-0.6,5.2-1.9,7.6c-0.4,0.8-1.5,1.9-3.2,3.2
		c-1.4,1-2.6,1.5-3.7,1.5C16.9,67.9,16.4,67.8,16.1,67.7z"/>
	<path d="M56.5,58.8c0.1,0.4,0.3,0.8,0.4,1.2s0.2,0.8,0.2,1.2c0,0.4-0.1,0.7-0.3,0.9c-0.2,0.2-0.5,0.4-0.8,0.6
		c-0.3,0.1-0.6,0.3-1,0.3c-0.3,0.1-0.6,0.1-0.9,0.1c-1,0-1.8-0.5-2.4-1.6c-0.6-1.1-1.1-2.4-1.5-4c-0.4-1.6-0.7-3.3-1-5.1
		c-0.3-1.8-0.5-3.4-0.8-4.9c-0.1,1-0.6,2.3-1.4,3.8c-0.8,1.5-1.8,3-3,4.4c-1.2,1.4-2.5,2.6-4,3.6c-1.4,1-2.9,1.5-4.3,1.5
		c-1.2,0-2.1-0.2-2.8-0.7c-0.7-0.5-1.3-1-1.7-1.7c-0.4-0.7-0.6-1.4-0.8-2.3c-0.1-0.8-0.2-1.6-0.2-2.3c0-1.6,0.4-3.5,1.2-5.9
		c0.8-2.3,1.9-4.6,3.2-6.8c1.4-2.2,3-4.1,4.8-5.7c1.8-1.6,3.7-2.3,5.7-2.3c0.4,0,0.9,0.1,1.5,0.2c0.6,0.1,1.1,0.3,1.7,0.5
		c0.6,0.2,1.1,0.5,1.7,0.8c0.5,0.3,1,0.6,1.4,0.9c0.8,0.7,1.4,1.6,1.7,2.7c0.3,1.2,0.5,2.4,0.6,3.6c0.3,2.4,0.6,4.6,0.8,6.5
		c0.2,1.9,0.6,4,1.1,6.2l0.4,2.7L56.5,58.8z M36.2,55.1c0,0,0,0.1,0,0.1c0,0,0,0.1,0,0.1c0.6,0,1.3-0.5,2.2-1.3
		c0.8-0.8,1.6-1.7,2.4-2.8c0.8-1.1,1.6-2.3,2.3-3.5c0.7-1.2,1.2-2.3,1.5-3.3c0.2-0.4,0.4-0.9,0.7-1.4c0.3-0.5,0.5-1.1,0.8-1.6
		c0.3-0.6,0.5-1.1,0.6-1.5c0.2-0.5,0.3-0.9,0.3-1.2c-0.2-0.1-0.5-0.2-0.6-0.3c-0.2-0.1-0.4-0.1-0.6-0.1c-1.1,0-2,0.4-2.8,1.2
		c-0.8,0.8-1.5,1.7-2.1,2.7c-0.6,1-1.1,2-1.5,2.9c-0.4,0.9-0.6,1.5-0.8,1.8c-0.7,1.2-1.2,2.5-1.7,3.9c-0.5,1.4-0.7,2.7-0.7,4V55.1z"
		/>
	<path d="M62.3,59.1c0.1-0.2,0.2-0.7,0.2-1.3c0-0.6,0-1.5,0-2.4c0-0.9,0-1.9,0-3c0-1.1,0-2-0.1-2.9c0-0.9,0-1.7-0.1-2.3
		c0-0.6,0-1,0-1.1v-2.4c0-1.1,0-2.1-0.1-3.2c-0.1-1.1-0.1-2.1-0.2-3.2v-0.3c0-0.4-0.1-0.9-0.3-1.3c-0.2-0.4-0.3-0.9-0.3-1.3
		c0.2-0.6,0.5-1.1,0.8-1.4c0.3-0.3,0.9-0.5,1.8-0.5c0.8,0,1.5,0.2,1.9,0.5c0.5,0.3,0.8,0.7,1.1,1.2c0.2,0.5,0.4,1,0.5,1.5
		c0.1,0.6,0.1,1.1,0.2,1.7l0.2,3.8c0.5-0.4,1-0.9,1.5-1.7c0.5-0.7,1.1-1.5,1.7-2.4c0.6-0.9,1.2-1.7,1.8-2.5c0.6-0.8,1.3-1.5,1.9-2
		c0.4-0.2,0.9-0.3,1.4-0.3c1.2,0,2.1,0.2,2.8,0.6c0.7,0.4,1.2,1.1,1.6,2.1c-0.1,0.4-0.4,0.9-0.8,1.5c-0.4,0.6-0.9,1.1-1.5,1.7
		c-0.6,0.6-1.1,1.2-1.7,1.9c-0.6,0.6-1.1,1.3-1.5,1.9c-0.7,0.8-1.4,1.7-2.2,2.8c-0.7,1.1-1.4,2.2-1.9,3.4c-0.6,1.2-1.1,2.2-1.4,3.3
		c-0.4,1-0.6,1.9-0.6,2.5c0,0.4,0,0.9,0,1.6c0,0.7,0,1.2,0,1.6c0,0.6,0,1.2-0.1,1.8c-0.1,0.6-0.3,1.2-0.6,1.7
		c-0.3,0.5-0.7,0.9-1.2,1.2c-0.5,0.3-1.1,0.5-1.9,0.5c-0.9,0-1.6-0.3-2.2-0.8c-0.6-0.6-0.8-1.2-0.8-2.1V59.1z"/>
	<path d="M106.3,58.8c0.1,0.4,0.3,0.8,0.4,1.2s0.2,0.8,0.2,1.2c0,0.4-0.1,0.7-0.3,0.9c-0.2,0.2-0.5,0.4-0.8,0.6
		c-0.3,0.1-0.6,0.3-1,0.3c-0.3,0.1-0.6,0.1-0.9,0.1c-1,0-1.8-0.5-2.4-1.6c-0.6-1.1-1.1-2.4-1.5-4c-0.4-1.6-0.7-3.3-1-5.1
		c-0.3-1.8-0.5-3.4-0.8-4.9c-0.1,1-0.6,2.3-1.4,3.8c-0.8,1.5-1.8,3-3,4.4c-1.2,1.4-2.5,2.6-4,3.6c-1.4,1-2.9,1.5-4.3,1.5
		c-1.2,0-2.1-0.2-2.8-0.7c-0.7-0.5-1.3-1-1.7-1.7c-0.4-0.7-0.6-1.4-0.8-2.3c-0.1-0.8-0.2-1.6-0.2-2.3c0-1.6,0.4-3.5,1.2-5.9
		c0.8-2.3,1.9-4.6,3.2-6.8c1.4-2.2,3-4.1,4.8-5.7c1.8-1.6,3.7-2.3,5.7-2.3c0.4,0,0.9,0.1,1.5,0.2c0.6,0.1,1.1,0.3,1.7,0.5
		c0.6,0.2,1.1,0.5,1.7,0.8c0.5,0.3,1,0.6,1.4,0.9c0.8,0.7,1.4,1.6,1.7,2.7c0.3,1.2,0.5,2.4,0.6,3.6c0.3,2.4,0.6,4.6,0.8,6.5
		c0.2,1.9,0.6,4,1.1,6.2l0.4,2.7L106.3,58.8z M86,55.1c0,0,0,0.1,0,0.1c0,0,0,0.1,0,0.1c0.6,0,1.3-0.5,2.2-1.3
		c0.8-0.8,1.6-1.7,2.4-2.8c0.8-1.1,1.6-2.3,2.3-3.5c0.7-1.2,1.2-2.3,1.5-3.3c0.2-0.4,0.4-0.9,0.7-1.4c0.3-0.5,0.5-1.1,0.8-1.6
		c0.3-0.6,0.5-1.1,0.6-1.5c0.2-0.5,0.3-0.9,0.3-1.2c-0.2-0.1-0.5-0.2-0.6-0.3c-0.2-0.1-0.4-0.1-0.6-0.1c-1.1,0-2,0.4-2.8,1.2
		c-0.8,0.8-1.5,1.7-2.1,2.7c-0.6,1-1.1,2-1.5,2.9c-0.4,0.9-0.6,1.5-0.8,1.8c-0.7,1.2-1.2,2.5-1.7,3.9c-0.5,1.4-0.7,2.7-0.7,4V55.1z"
		/>
	<path d="M111.6,50.6c0-2.7-0.1-5.6-0.2-8.5c-0.1-2.9-0.2-5.8-0.2-8.7c0-1.7,0-3.5,0.1-5.4c0-1.9,0.1-3.7,0.2-5.5
		c0.1-1.8,0.3-3.5,0.5-5.1c0.2-1.6,0.5-3,0.8-4.1c0.8-0.2,1.5-0.4,2.1-0.4c1,0,1.8,0.4,2.2,1.1c0.5,0.7,0.7,1.6,0.7,2.6
		c0,1.2-0.1,2.3-0.3,3.2c-0.2,0.9-0.3,1.9-0.4,3c-0.1,2.1-0.2,4.1-0.3,5.9c-0.1,1.8-0.1,3.5-0.1,5.2c0,1.7,0,3.3-0.1,4.9
		c0,1.6,0,3.3,0,4.9c0.5-1.3,1.1-2.5,1.8-3.7c0.7-1.2,1.4-2.3,2.1-3.2c0.7-0.9,1.5-1.7,2.4-2.2c0.8-0.6,1.7-0.8,2.5-0.8
		c1.3,0.1,2.4,0.6,3.2,1.4c0.8,0.8,1.5,1.8,2,3c0.5,1.2,0.8,2.3,1,3.5c0.2,1.2,0.3,2.2,0.3,3c0.2,0.8,0.3,1.6,0.4,2.6
		c0.1,1,0.2,1.9,0.3,2.7c0.2,1.6,0.5,3.2,1,4.9c0.5,1.7,0.8,3.2,0.9,4.6c-0.1,0.5-0.5,0.9-0.9,1.3c-0.5,0.4-0.9,0.6-1.3,0.6
		c-1.2,0-2.2-0.6-2.9-1.7c-0.7-1.2-1.3-2.5-1.7-4c-0.4-1.5-0.6-3-0.8-4.6c-0.1-1.5-0.2-2.7-0.2-3.4c0-0.6-0.1-1.3-0.2-2.2
		c-0.1-0.9-0.3-1.7-0.4-2.5c-0.2-0.8-0.3-1.5-0.5-2c-0.2-0.6-0.4-0.8-0.6-0.8c-0.6,0.2-1.1,0.6-1.7,1.4c-0.5,0.7-1,1.6-1.5,2.6
		c-0.5,1-0.9,2.1-1.3,3.3c-0.4,1.2-0.7,2.3-1,3.3c-0.3,1.1-0.5,2-0.6,2.8c-0.2,0.8-0.3,1.4-0.3,1.7v0.4c0,0.1,0,0.2,0,0.2
		c0,0,0,0.1,0,0.2v0.3c0,0.5-0.1,1.1-0.2,1.6c-0.1,0.5-0.2,1-0.3,1.5c-0.1,0.5-0.3,0.8-0.6,1.1c-0.2,0.3-0.5,0.4-0.9,0.4
		c-1.2,0-2.2-0.3-2.9-0.8c-0.7-0.5-1.2-1.2-1.5-2.1c-0.3-0.8-0.5-1.8-0.6-2.8c0-1-0.1-2.1-0.1-3.1V50.6z"/>
	<path d="M160.8,18.5c0-0.4,0.2-0.8,0.5-1.1c0.3-0.3,0.7-0.5,1.2-0.5h0.8c0.5,0,1.2,0.1,2,0.2c1.2,0.7,1.9,1.9,2.2,3.6
		c0.1,0.8,0.2,1.5,0.2,2.3c0,0.8,0.1,1.5,0.1,2.3c0.2,1.6,0.3,3.3,0.4,5c0.1,1.7,0.1,3.4,0.1,5.1c0,0.9,0,1.8,0,2.7
		c0,0.9-0.1,1.8-0.1,2.8c-0.4,7.4-1.4,13.4-3.1,17.8c-1.7,4.4-4.2,7.6-7.5,9.5c-1.1,0.6-2,0.9-3,0.9c-1.3,0-2.5-0.3-3.4-0.9
		c-1.4-1-2.1-1.9-2.1-2.9c0-1.1,0.6-1.6,1.8-1.6c0.2,0,0.6,0.1,1.2,0.2c0.5,0.1,0.9,0.2,1.2,0.2c0.4,0,0.8-0.1,1.3-0.2
		c0.5-0.1,0.8-0.3,1-0.7c1.4-1.5,2.5-3.3,3.4-5.1c0.9-1.9,1.5-4,2-6.2c0.5-2.3,0.8-4.7,1-7.3c0.2-2.6,0.3-5.4,0.3-8.3
		c0-1.5,0-3.1-0.1-4.9c-0.1-1.8-0.2-3.7-0.4-5.8c-0.1-0.8-0.2-1.7-0.3-2.9c-0.1-1.2-0.3-2.5-0.5-4.1V18.5z"/>
	<path d="M198.3,58.8c0.1,0.4,0.3,0.8,0.4,1.2s0.2,0.8,0.2,1.2c0,0.4-0.1,0.7-0.3,0.9c-0.2,0.2-0.5,0.4-0.8,0.6
		c-0.3,0.1-0.6,0.3-1,0.3c-0.3,0.1-0.6,0.1-0.9,0.1c-1,0-1.8-0.5-2.4-1.6c-0.6-1.1-1.1-2.4-1.5-4c-0.4-1.6-0.7-3.3-1-5.1
		c-0.3-1.8-0.5-3.4-0.8-4.9c-0.1,1-0.6,2.3-1.4,3.8c-0.8,1.5-1.8,3-3,4.4c-1.2,1.4-2.5,2.6-4,3.6c-1.4,1-2.9,1.5-4.3,1.5
		c-1.2,0-2.1-0.2-2.8-0.7c-0.7-0.5-1.3-1-1.7-1.7c-0.4-0.7-0.6-1.4-0.8-2.3c-0.1-0.8-0.2-1.6-0.2-2.3c0-1.6,0.4-3.5,1.2-5.9
		c0.8-2.3,1.9-4.6,3.2-6.8c1.4-2.2,3-4.1,4.8-5.7c1.8-1.6,3.7-2.3,5.7-2.3c0.4,0,0.9,0.1,1.5,0.2c0.6,0.1,1.1,0.3,1.7,0.5
		c0.6,0.2,1.1,0.5,1.7,0.8c0.5,0.3,1,0.6,1.4,0.9c0.8,0.7,1.4,1.6,1.7,2.7c0.3,1.2,0.5,2.4,0.6,3.6c0.3,2.4,0.6,4.6,0.8,6.5
		c0.2,1.9,0.6,4,1.1,6.2l0.4,2.7L198.3,58.8z M178,55.1c0,0,0,0.1,0,0.1c0,0,0,0.1,0,0.1c0.6,0,1.3-0.5,2.2-1.3
		c0.8-0.8,1.6-1.7,2.4-2.8c0.8-1.1,1.6-2.3,2.3-3.5c0.7-1.2,1.2-2.3,1.5-3.3c0.2-0.4,0.4-0.9,0.7-1.4c0.3-0.5,0.5-1.1,0.8-1.6
		c0.3-0.6,0.5-1.1,0.6-1.5c0.2-0.5,0.3-0.9,0.3-1.2c-0.2-0.1-0.5-0.2-0.6-0.3c-0.2-0.1-0.4-0.1-0.6-0.1c-1.1,0-2,0.4-2.8,1.2
		c-0.8,0.8-1.5,1.7-2.1,2.7c-0.6,1-1.1,2-1.5,2.9c-0.4,0.9-0.6,1.5-0.8,1.8c-0.7,1.2-1.2,2.5-1.7,3.9c-0.5,1.4-0.7,2.7-0.7,4V55.1z"
		/>
	<path d="M209.4,49.9c0.7-0.7,1.2-1.5,1.6-2.6c0.4-1.1,0.8-2.1,1.2-3l0.1-0.4c0.3-0.8,0.7-1.7,1.3-2.8c0.6-1.1,1.2-2.2,2-3.2
		c0.8-1,1.6-1.9,2.5-2.6c0.9-0.7,1.8-1.1,2.8-1.1c0.8,0.2,1.4,0.6,1.8,1.2c0.4,0.5,0.7,1.1,0.9,1.8c0.2,0.6,0.4,1.3,0.6,2
		c0.2,0.7,0.4,1.4,0.7,2c0.6,1.4,1.1,2.9,1.4,4.5c0.3,1.6,0.6,3.2,0.8,4.8c0.2,1.6,0.5,3.2,0.8,4.8s0.7,3,1.3,4.4
		c-0.1,0.8-0.5,1.3-1.3,1.7c-0.7,0.4-1.4,0.5-2,0.5c-0.9,0-1.5-0.3-2-1c-0.5-0.6-0.9-1.4-1.1-2.4c-0.3-0.9-0.5-1.9-0.6-2.9
		c-0.1-1-0.3-1.8-0.5-2.5c-0.2-0.8-0.4-1.7-0.6-2.8c-0.1-1-0.3-2.1-0.5-3.1c-0.2-1.1-0.4-2-0.7-3c-0.3-0.9-0.6-1.7-1.1-2.2
		c-0.8,1.3-1.5,2.5-2,3.6c-0.5,1.1-1,2.2-1.4,3.2c-0.4,1-0.8,2-1.2,3c-0.4,1-0.9,2-1.4,3c-0.8,1.4-1.5,2.5-2.1,3.2
		c-0.6,0.8-1.2,1.3-1.7,1.7c-0.5,0.4-1,0.6-1.5,0.6c-0.5,0.1-0.9,0.1-1.4,0.1c-0.5,0-1.1-0.2-1.8-0.7c-0.7-0.5-1-1.1-1-1.7
		c0-3,0-5.8,0-8.4c0-2.6,0-5.3,0-8.2c0-0.8,0-1.6-0.1-2.5c0-0.8-0.1-1.7-0.1-2.5c0-0.6,0.1-1.1,0.3-1.7c0.2-0.6,0.6-0.9,1.1-1.2
		c0.3,0,0.6,0,0.9,0c0.3,0,0.6,0,0.8,0c0.6,0,1.1,0.2,1.5,0.5c0.4,0.4,0.6,0.8,0.8,1.3c0.2,0.5,0.3,1.1,0.3,1.7
		c0,0.6,0.1,1.1,0.1,1.4c0,0.5,0.1,1,0.2,1.5c0.1,0.5,0.2,1,0.2,1.5c0,1.8,0,3.3-0.1,4.5c0,1.2-0.1,2.4-0.1,3.6V49.9z"/>
	<path d="M232.8,48.2c0-1.8,0.2-3.6,0.7-5.4c0.5-1.8,1.1-3.4,2.1-4.9c0.9-1.4,2-2.6,3.4-3.5c1.3-0.9,2.9-1.3,4.7-1.3
		c1.2,0,2.3,0.2,3.3,0.6c0.9,0.4,1.7,0.9,2.3,1.5c0.6,0.6,1.1,1.3,1.4,2.1c0.3,0.8,0.5,1.6,0.5,2.5c0,1.1-0.2,2.2-0.6,3.2
		c-0.4,1-1,2-1.8,2.8c-0.8,0.8-1.7,1.5-2.8,2c-1.1,0.5-2.4,0.8-3.9,0.8c-0.6,0-1.2,0-1.7-0.1c-0.5-0.1-1-0.2-1.7-0.4
		c0,0.2-0.1,0.4-0.1,0.6c0,0.2,0,0.3,0,0.4c0,1.8,0.3,3.2,0.9,4.2c0.5,1,1.1,1.8,1.7,2.3c0.6,0.5,1.2,0.8,1.8,1
		c0.6,0.1,1,0.2,1.2,0.2c1.5,0,2.7-0.3,3.7-1c1-0.7,2.1-1.4,3.3-2.2c0.2,0.1,0.5,0.2,0.8,0.3c0.3,0.1,0.6,0.3,0.8,0.7
		c0,0.3,0.1,0.5,0.1,0.7c0,0.2,0.1,0.4,0.1,0.8c0,0.7-0.2,1.2-0.5,1.7c-0.3,0.5-0.7,0.9-1,1.2c-1.2,1.1-2.4,1.7-3.5,2.1
		c-1.1,0.3-2.5,0.5-4.2,0.5c-0.8,0-1.7-0.2-2.8-0.5c-1.1-0.3-2.1-0.7-2.8-1.1c-1.2-0.9-2.1-1.7-2.7-2.6c-0.6-0.9-1.2-1.8-1.5-2.7
		c-0.4-1-0.6-2-0.7-3C233,50.4,232.9,49.3,232.8,48.2z M239.1,44.3c0.2,0,0.5,0.1,0.9,0.1c0.4,0,0.7,0,1,0c1.6,0,2.9-0.4,3.8-1.2
		c0.9-0.8,1.3-1.8,1.3-3c0-0.7-0.2-1.3-0.6-1.9c-0.4-0.6-0.9-0.9-1.6-0.9c-0.5,0-0.9,0-1.4,0.1c-0.5,0.1-0.8,0.3-1,0.7
		c-0.2,0.2-0.4,0.5-0.6,0.7c-0.2,0.2-0.5,0.6-0.7,1c-0.2,0.4-0.4,1-0.6,1.6C239.3,42.4,239.2,43.2,239.1,44.3z"/>
	<path d="M279.2,67.7c-1.4-0.6-2.2-1.4-2.2-2.4c0-0.6,0.4-1.3,1.1-2.1c0.2-0.2,0.6-0.3,1.4-0.4c0.7,0,1.2-0.3,1.4-0.9
		c1-2.1,1.5-4.2,1.5-6.5c0-3-1.6-7.5-4.7-13.5c-3.1-6-4.6-10.7-4.6-14.3c0-2.9,0.6-5.5,1.7-7.8c1.3-2.6,3.1-4.5,5.5-5.7
		c1.2-0.5,2.3-0.8,3.2-0.8c2,0,3.5,0.6,4.5,1.7c0.5,0.5,0.7,1,0.7,1.6c0,1-0.7,1.8-2.1,2.5c-0.2,0.1-0.4,0.1-0.6,0.1
		c-0.3,0-0.5,0-0.6-0.1c-0.5-0.2-0.9-0.3-1.1-0.3c-0.3,0-0.6,0.1-0.9,0.4c-2.6,2.6-3.9,5.8-3.9,9.5c0,1.4,0.2,2.7,0.6,3.9
		c0.1,0.2,0.6,1.3,1.5,3.2c0.9,1.9,2.2,4.5,4,8c2.3,4.6,3.5,8.5,3.5,11.7c0,2.6-0.6,5.2-1.9,7.6c-0.4,0.8-1.5,1.9-3.2,3.2
		c-1.4,1-2.6,1.5-3.7,1.5C279.9,67.9,279.5,67.8,279.2,67.7z"/>
	<path d="M333.2,41.1c0,1.9,0.2,3.7,0.5,5.4c0.3,1.7,0.6,3.5,0.9,5.4c0.1,1,0.4,1.9,0.8,3c0.5,1,0.7,2,0.7,3c0,1.1-0.3,1.9-1,2.5
		c-0.6,0.6-1.4,0.9-2.3,0.9c-1,0-1.8-0.5-2.3-1.4c-0.6-0.9-1-2-1.2-3.2s-0.4-2.4-0.5-3.6c-0.1-1.2-0.2-2-0.4-2.5
		c-0.3-0.8-0.5-1.5-0.6-2.3c-0.1-0.8-0.2-1.6-0.3-2.3c-0.1-0.8-0.1-1.5-0.2-2.3c-0.1-0.8-0.2-1.6-0.5-2.4c-0.4,0.8-0.9,1.7-1.4,2.6
		s-1,1.9-1.5,2.9c-0.5,1-1,1.9-1.5,2.9s-0.9,1.8-1.2,2.6c-0.4,0.8-0.7,1.6-0.9,2.3c-0.2,0.7-0.4,1.5-0.6,2.2
		c-0.2,0.7-0.4,1.4-0.6,2.2c-0.2,0.7-0.6,1.5-1,2.3c-0.6,0.3-1.2,0.4-1.9,0.4c-0.9,0-1.6-0.3-2.1-1c-0.5-0.7-0.9-1.5-1.2-2.5
		c-0.3-1-0.5-2.1-0.6-3.2c-0.1-1.1-0.3-2.1-0.4-3c-0.1-0.9-0.2-1.9-0.4-3c-0.2-1.1-0.4-2.1-0.6-3.1c-0.3-1-0.6-2-0.9-2.9
		c-0.3-0.9-0.7-1.7-1-2.2c-0.7,0.5-1.3,1.3-1.8,2.2c-0.5,1-1,2-1.4,3c-0.4,1-0.8,2-1,3c-0.3,1-0.6,1.8-0.8,2.3
		c-0.6,1.1-1,2.2-1.3,3.3c-0.2,1.1-0.5,2.2-0.7,3.1c-0.3,0.9-0.7,1.7-1.2,2.3c-0.6,0.6-1.5,0.9-2.8,0.9c-0.4,0-0.8-0.1-1.1-0.4
		c-0.4-0.3-0.7-0.6-0.9-1c-0.2-0.4-0.4-0.8-0.6-1.2c-0.1-0.4-0.2-0.8-0.2-1.2c0.1-0.5,0.2-1,0.2-1.4c0-0.5,0-1,0-1.5
		c0-0.1,0-0.5,0.1-1.1c0-0.6,0.1-1.2,0.1-1.8c0-0.6,0.1-1.3,0.1-1.8c0-0.6,0.1-0.9,0.1-1.1c0-2.7,0-4.6-0.1-5.8c0-1.2-0.1-2-0.1-2.4
		c0-0.4-0.1-0.7-0.1-0.7c0,0-0.1-0.2-0.1-0.6c0-0.5-0.1-1-0.3-1.5c-0.2-0.5-0.3-1-0.3-1.5c0-0.7,0.3-1.2,0.9-1.7
		c0.6-0.5,1.2-0.7,1.9-0.7c0.9,0,1.5,0.2,2,0.6c0.5,0.4,0.8,1,1,1.6c0.2,0.6,0.3,1.3,0.4,2.1c0,0.7,0.1,1.4,0.1,2
		c0,0.5,0,1.1-0.1,1.8c-0.1,0.7-0.1,1.3-0.1,1.9c0,0.3,0,0.7,0.1,1.2c0.3-0.6,0.6-1.3,1-2.1c0.4-0.8,0.7-1.5,1.2-2.3
		c0.4-0.8,0.8-1.5,1.3-2.3c0.4-0.7,0.9-1.3,1.3-1.9c0.6-0.7,1.2-1.5,2-2.3c0.8-0.8,1.6-1.2,2.6-1.2c1.1,0,1.9,0.2,2.4,0.7
		c0.6,0.5,1,1.1,1.3,1.8c0.3,0.7,0.5,1.5,0.6,2.4c0.1,0.9,0.3,1.7,0.5,2.5c0.4,1.4,0.8,3,1.2,4.7c0.4,1.7,0.7,3.3,1,4.7
		c0.1-0.3,0.3-0.8,0.5-1.3c0.2-0.6,0.4-1.1,0.7-1.7c0.2-0.6,0.5-1.2,0.7-1.7s0.4-0.9,0.6-1.2c0.4-0.9,0.9-1.9,1.5-3
		c0.6-1.1,1.2-2.1,1.9-3s1.6-1.7,2.6-2.4c1-0.7,2.1-1.1,3.4-1.2c0.6,0.3,1.1,0.5,1.6,0.7c0.5,0.2,0.9,0.4,1.2,0.8
		c0.3,0.4,0.6,0.9,0.8,1.6c0.2,0.7,0.3,1.8,0.3,3.1V41.1z"/>
	<path d="M349.3,58.4c0,0.4-0.1,0.8-0.3,1.2c-0.2,0.4-0.6,0.8-1.1,1.4c-0.8,0-1.6-0.1-2.3-0.2c-0.7-0.1-1.3-0.4-1.8-0.9
		s-0.9-1.1-1.2-1.9c-0.3-0.8-0.4-1.9-0.4-3.3c0-0.8-0.1-1.6-0.3-2.4c-0.2-0.8-0.3-1.6-0.3-2.4c0-2.4-0.1-4.8-0.4-7
		c-0.3-2.2-0.4-4.5-0.4-7c0-1,0.4-1.8,1.2-2.3c0.5-0.1,0.9-0.3,1.4-0.3c0.4-0.1,0.9-0.2,1.4-0.3c0.7,0.2,1.2,0.5,1.5,0.8
		c0.3,0.4,0.6,0.7,0.9,1c0,0.5-0.1,1-0.1,1.4c0,0.5,0,1,0,1.5c0,1.8,0.1,3.8,0.3,5.8c0.2,2.1,0.4,4,0.6,5.9c0.2,1.9,0.5,3.6,0.7,5.1
		c0.2,1.5,0.4,2.7,0.5,3.5V58.4z M343,17.9c0.2-0.2,0.7-0.4,1.3-0.4c0.5,0,1,0.1,1.5,0.3c0.5,0.2,1,0.4,1.4,0.7c0.4,0.3,0.8,0.7,1,1
		c0.3,0.4,0.4,0.8,0.4,1.2c0,0.9-0.2,1.5-0.7,1.8c-0.5,0.3-1.1,0.5-1.9,0.5c-0.5,0-1.1-0.1-1.6-0.3c-0.6-0.2-1-0.4-1.5-0.6
		c-0.4-0.2-0.8-0.5-1-0.8c-0.3-0.3-0.4-0.5-0.4-0.8c0-0.6,0.1-1.1,0.2-1.5C341.8,18.7,342.2,18.3,343,17.9z"/>
	<path d="M359.6,14.3c0-0.6,0.1-1.2,0.2-1.9c0.4-0.2,0.7-0.3,0.9-0.5c0.2-0.1,0.6-0.2,0.9-0.2c0.8,0,1.5,0.1,2,0.4s0.9,0.6,1.2,1.1
		c0.3,0.4,0.4,0.9,0.5,1.5c0.1,0.6,0.1,1.1,0.1,1.6c0,1,0,1.9,0.1,2.6c0,0.7,0.1,1.5,0.1,2.2c0,0.8,0,1.5,0,2.3c0,0.7,0,1.5,0,2.3
		c0,0.5,0,1.1,0,1.7c0,0.6,0,1.2,0,1.8c0,0.3,0,0.6,0.1,0.8c0,0.2,0.3,0.4,0.6,0.4c1.2,0,2.3-0.2,3.3-0.6c0.9-0.4,2-0.6,3.3-0.6
		c0.7,0,1.1,0.3,1.4,0.8c0.2,0.5,0.4,1.1,0.4,1.6c0,0.6-0.1,1.1-0.4,1.5s-0.6,0.6-1.1,0.8c-0.4,0.2-0.9,0.3-1.4,0.5
		c-0.5,0.1-1,0.3-1.5,0.4c-0.4,0.2-0.9,0.4-1.5,0.5c-0.6,0.2-1.2,0.4-1.7,0.6c-0.5,0.2-1,0.6-1.4,0.9c-0.4,0.4-0.6,0.9-0.6,1.4
		c0,0.3,0,0.6,0,0.9c0,0.3,0,0.6,0,0.9s0,0.6,0,0.9c0,0.3,0,0.6,0,1c0,2.2,0.2,4.4,0.5,6.7c0.3,2.3,0.7,4.6,1,6.7
		c0.1,0.7,0.3,1.3,0.5,2c0.2,0.7,0.3,1.3,0.3,1.9c0,0.8-0.2,1.4-0.6,1.8c-0.4,0.4-0.9,0.6-1.4,0.8c-0.5,0.1-0.8,0.1-0.9,0.1
		c-0.7,0-1.3-0.2-1.8-0.7c-0.6-0.5-1-1-1.4-1.7c-0.2-0.7-0.4-1.6-0.6-2.7c-0.2-1.2-0.3-2.2-0.3-3.2c-0.1-2.4-0.2-4.7-0.3-7
		c0-2.3-0.1-4.7-0.1-7c0-0.2,0-0.4,0-0.5c0-0.2-0.1-0.3-0.2-0.5c-0.9,0.1-1.6,0.4-2.2,0.6s-1.2,0.4-2,0.4c-1,0-1.8-0.3-2.4-0.9
		c-0.7-0.6-1.2-1.1-1.5-1.5c0-0.5,0.1-1.2,0.4-2c0.6-0.2,1.2-0.4,1.7-0.5c0.5-0.1,1-0.2,1.5-0.3c0.5-0.1,1-0.2,1.5-0.4
		c0.5-0.1,1.1-0.4,1.7-0.7c0.8,0,1.2-0.3,1.3-0.9c0.1-0.6,0.2-1.1,0.2-1.5c0-0.9,0-1.6,0-2.2c0-0.6,0-1.5,0-2.6c0-0.7,0-1.5,0-2.2
		c0-0.7,0-1.5,0-2.2V14.3z"/>
	<path d="M377.8,50.6c0-2.7-0.1-5.6-0.2-8.5c-0.1-2.9-0.2-5.8-0.2-8.7c0-1.7,0-3.5,0.1-5.4c0-1.9,0.1-3.7,0.2-5.5
		c0.1-1.8,0.3-3.5,0.5-5.1c0.2-1.6,0.5-3,0.8-4.1c0.8-0.2,1.5-0.4,2.1-0.4c1,0,1.8,0.4,2.2,1.1c0.5,0.7,0.7,1.6,0.7,2.6
		c0,1.2-0.1,2.3-0.3,3.2c-0.2,0.9-0.3,1.9-0.4,3c-0.1,2.1-0.2,4.1-0.3,5.9s-0.1,3.5-0.1,5.2c0,1.7,0,3.3-0.1,4.9c0,1.6,0,3.3,0,4.9
		c0.5-1.3,1.1-2.5,1.8-3.7c0.7-1.2,1.4-2.3,2.1-3.2c0.7-0.9,1.5-1.7,2.4-2.2c0.8-0.6,1.7-0.8,2.5-0.8c1.3,0.1,2.4,0.6,3.2,1.4
		c0.8,0.8,1.5,1.8,2,3c0.5,1.2,0.8,2.3,1,3.5c0.2,1.2,0.3,2.2,0.3,3c0.2,0.8,0.3,1.6,0.4,2.6c0.1,1,0.2,1.9,0.3,2.7
		c0.2,1.6,0.5,3.2,1,4.9c0.5,1.7,0.8,3.2,0.9,4.6c-0.1,0.5-0.5,0.9-0.9,1.3c-0.5,0.4-0.9,0.6-1.3,0.6c-1.2,0-2.2-0.6-2.9-1.7
		s-1.3-2.5-1.7-4c-0.4-1.5-0.6-3-0.8-4.6c-0.1-1.5-0.2-2.7-0.2-3.4c0-0.6-0.1-1.3-0.2-2.2c-0.1-0.9-0.3-1.7-0.4-2.5
		c-0.2-0.8-0.3-1.5-0.5-2c-0.2-0.6-0.4-0.8-0.6-0.8c-0.6,0.2-1.1,0.6-1.7,1.4c-0.5,0.7-1,1.6-1.5,2.6c-0.5,1-0.9,2.1-1.3,3.3
		c-0.4,1.2-0.7,2.3-1,3.3c-0.3,1.1-0.5,2-0.6,2.8c-0.2,0.8-0.3,1.4-0.3,1.7v0.4c0,0.1,0,0.2,0,0.2c0,0,0,0.1,0,0.2v0.3
		c0,0.5-0.1,1.1-0.2,1.6c-0.1,0.5-0.2,1-0.3,1.5c-0.1,0.5-0.3,0.8-0.6,1.1c-0.2,0.3-0.5,0.4-0.9,0.4c-1.2,0-2.2-0.3-2.9-0.8
		c-0.7-0.5-1.2-1.2-1.5-2.1c-0.3-0.8-0.5-1.8-0.6-2.8c0-1-0.1-2.1-0.1-3.1V50.6z"/>
</g>
</svg>
